<?xml version="1.0" encoding="UTF-8" standalone="no"?>
<!-- Uploaded to: SVG Repo, www.svgrepo.com, Generator: SVG Repo Mixer Tools -->

<svg
   width="800px"
   height="800px"
   viewBox="0 0 24 24"
   fill="none"
   version="1.1"
   id="svg4"
   sodipodi:docname="globe-alt-svgrepo-com.svg"
   inkscape:version="1.3.2 (091e20e, 2023-11-25)"
   xmlns:inkscape="http://www.inkscape.org/namespaces/inkscape"
   xmlns:sodipodi="http://sodipodi.sourceforge.net/DTD/sodipodi-0.dtd"
   xmlns="http://www.w3.org/2000/svg"
   xmlns:svg="http://www.w3.org/2000/svg">
  <defs
     id="defs4" />
  <sodipodi:namedview
     id="namedview4"
     pagecolor="#ffffff"
     bordercolor="#000000"
     borderopacity="0.25"
     inkscape:showpageshadow="2"
     inkscape:pageopacity="0.0"
     inkscape:pagecheckerboard="0"
     inkscape:deskcolor="#d1d1d1"
     inkscape:zoom="0.295"
     inkscape:cx="400"
     inkscape:cy="400"
     inkscape:window-width="1312"
     inkscape:window-height="449"
     inkscape:window-x="0"
     inkscape:window-y="25"
     inkscape:window-maximized="0"
     inkscape:current-layer="svg4" />
  <path
     d="M21 12C21 16.9706 16.9706 21 12 21C7.02944 21 3 16.9706 3 12C3 7.02944 7.02944 3 12 3C16.9706 3 21 7.02944 21 12Z"
     stroke="#323232"
     stroke-width="2"
     id="path1"
     style="fill:none;stroke:#0c750f;stroke-opacity:1" />
  <path
     d="M3.5 11H6C7.10457 11 8 11.8954 8 13V13C8 14.1046 8.89543 15 10 15V15C11.1046 15 12 15.8954 12 17V20.5"
     stroke="#323232"
     stroke-width="2"
     stroke-linecap="round"
     stroke-linejoin="round"
     id="path2"
     style="fill:none;stroke:#0c750f;stroke-opacity:1" />
  <path
     d="M8 4V5C8 6.10457 8.89543 7 10 7H10.1459C11.1699 7 12 7.83011 12 8.8541V8.8541C12 9.55638 12.3968 10.1984 13.0249 10.5125L13.1056 10.5528C13.6686 10.8343 14.3314 10.8343 14.8944 10.5528L14.9751 10.5125C15.6032 10.1984 16 9.55638 16 8.8541V8.8541C16 7.83011 16.8301 7 17.8541 7H19.5"
     stroke="#323232"
     stroke-width="2"
     stroke-linecap="round"
     stroke-linejoin="round"
     id="path3"
     style="fill:none;stroke:#0c750f;stroke-opacity:1" />
  <path
     d="M16 19.5V17C16 15.8954 16.8954 15 18 15H20"
     stroke="#323232"
     stroke-width="2"
     stroke-linecap="round"
     stroke-linejoin="round"
     id="path4"
     style="fill:none;stroke:#0c750f;stroke-opacity:1" />
</svg>
